<?xml version="1.0" standalone="no"?>
<!DOCTYPE svg PUBLIC "-//W3C//DTD SVG 20010904//EN"
 "http://www.w3.org/TR/2001/REC-SVG-20010904/DTD/svg10.dtd">
<svg version="1.0" xmlns="http://www.w3.org/2000/svg"
 width="1303.000000pt" height="1303.000000pt" viewBox="0 0 1303.000000 1303.000000"
 preserveAspectRatio="xMidYMid meet">
<metadata>
Created by potrace 1.14, written by Peter Selinger 2001-2017
</metadata>
<g transform="translate(0.000000,1303.000000) scale(0.100000,-0.100000)"
fill="#000000" stroke="none">
<path d="M6220 12924 c-247 -16 -387 -28 -522 -45 -1173 -144 -2293 -618
-3217 -1362 -407 -328 -805 -741 -1118 -1157 -1365 -1824 -1655 -4249 -757
-6347 251 -588 579 -1117 1007 -1627 151 -179 579 -605 762 -757 411 -341 803
-598 1270 -829 132 -66 312 -149 400 -186 198 -82 608 -219 815 -273 767 -200
1553 -257 2335 -170 1823 202 3455 1166 4524 2672 448 632 784 1364 976 2126
259 1030 256 2129 -10 3156 -249 968 -698 1823 -1363 2599 -120 139 -493 513
-632 632 -442 380 -877 669 -1375 914 -716 352 -1472 563 -2275 635 -164 15
-699 27 -820 19z m566 -3304 c368 -19 633 -67 969 -177 464 -152 879 -411
1146 -717 l78 -89 160 -53 c187 -61 388 -161 531 -262 117 -82 315 -279 393
-389 265 -373 339 -822 206 -1240 -104 -327 -327 -616 -638 -824 -260 -175
-555 -284 -891 -327 l-129 -17 -45 -92 c-65 -132 -136 -234 -244 -345 -202
-208 -441 -333 -732 -384 -72 -12 -134 -15 -258 -12 l-162 5 -449 -596 c-247
-328 -457 -604 -468 -613 -107 -96 -301 -50 -357 84 -10 23 -35 211 -66 495
-27 252 -50 459 -50 460 0 2 -22 -10 -48 -27 -88 -54 -276 -138 -397 -178
-212 -70 -413 -102 -645 -102 -236 0 -423 30 -650 106 -293 97 -540 248 -769
469 -634 611 -807 1551 -432 2351 216 461 647 860 1121 1038 42 16 47 22 72
84 119 292 420 627 768 854 137 90 402 222 565 282 340 125 694 197 1060 215
83 5 157 9 165 9 8 1 97 -3 196 -8z"/>
</g>
</svg>
